<svg width="63" height="64" viewBox="0 0 63 64" fill="none" xmlns="http://www.w3.org/2000/svg">
<path opacity="0.3" d="M15.8531 59.7022C11.9987 57.4348 10.6781 52.4129 12.9034 48.4856C15.1287 44.5583 20.0573 43.2127 23.9117 45.4801C27.766 47.7476 29.0866 52.7694 26.8613 56.6967C24.636 60.624 19.7074 61.9696 15.8531 59.7022Z" fill="#0057FF"/>
<path opacity="0.3" d="M23.9117 18.814C20.0573 21.0814 15.1287 19.7358 12.9034 15.8085C10.6781 11.8812 11.9987 6.85932 15.8531 4.59189C19.7074 2.32445 24.636 3.67005 26.8613 7.59736C29.0867 11.5247 27.7661 16.5465 23.9117 18.814Z" fill="#0057FF"/>
<path fill-rule="evenodd" clip-rule="evenodd" d="M39.0223 18.814C35.1679 16.5466 33.8473 11.5247 36.0726 7.59741C38.298 3.67009 43.2265 2.32449 47.0809 4.59193C50.9353 6.85937 52.2559 11.8812 50.0306 15.8085V15.8085C49.6696 16.4455 49.5955 17.2288 49.9565 17.8658L52.8579 22.9864C53.2124 23.612 53.9168 23.9362 54.6358 23.9362V23.9362C59.0865 23.9362 62.6944 27.6124 62.6944 32.1473C62.6944 36.6822 59.0865 40.3584 54.6358 40.3584V40.3584C54.081 40.3584 53.545 40.6198 53.2715 41.1025L49.9868 46.8994C49.7084 47.3908 49.7521 47.9944 50.0306 48.4858V48.4858C52.2559 52.4132 50.9353 57.435 47.081 59.7024C43.2266 61.9699 38.298 60.6243 36.0727 56.6969C33.8474 52.7696 35.168 47.7478 39.0223 45.4804C39.7736 45.0384 40.5657 44.7337 41.3706 44.5587C43.264 44.1469 45.2394 43.3933 46.1946 41.7075L47.9786 38.5591C48.3258 37.9463 48.2403 37.1935 47.863 36.5987V36.5987C47.5142 36.0488 46.9327 35.6586 46.2815 35.6586H41.6715C39.9244 35.6586 38.4092 36.7584 37.1763 37.9963C35.7215 39.457 33.7242 40.3584 31.5203 40.3584C29.3165 40.3584 27.3192 39.457 25.8644 37.9963C24.6315 36.7584 23.1162 35.6586 21.3691 35.6586H18.45C16.7029 35.6586 15.1877 36.7584 13.9548 37.9963C12.5 39.457 10.5027 40.3584 8.29885 40.3584C3.8482 40.3584 0.240234 36.6822 0.240234 32.1473C0.240234 27.6124 3.8482 23.9362 8.29885 23.9362C10.7493 23.9362 12.9443 25.0506 14.4223 26.8092C15.6946 28.323 17.3503 29.7164 19.3278 29.7164L20.4914 29.7164C22.4689 29.7164 24.1246 28.323 25.3969 26.8092C26.8749 25.0506 29.0699 23.9362 31.5203 23.9362C33.9708 23.9362 36.1658 25.0506 37.6438 26.8092C38.9161 28.323 40.5718 29.7164 42.5493 29.7164L45.3035 29.7164C46.2733 29.7164 47.1071 29.0549 47.5671 28.2012V28.2012C47.9939 27.4091 48.0902 26.4567 47.6467 25.6739L45.8679 22.5347C44.9406 20.8982 43.0464 20.1372 41.2168 19.7006C40.4648 19.5212 39.7257 19.2278 39.0223 18.814Z" fill="#0057FF"/>
</svg>
